<?xml version="1.0" encoding="UTF-8"?>
<svg xmlns="http://www.w3.org/2000/svg" xmlns:xlink="http://www.w3.org/1999/xlink" viewBox="0 0 734.94 295.34">
  <defs>
    <style>
      .cls-1 {
        fill: url(#Namnlös_övertoning_37);
      }

      .cls-1, .cls-2, .cls-3, .cls-4, .cls-5, .cls-6, .cls-7, .cls-8, .cls-9, .cls-10, .cls-11, .cls-12, .cls-13, .cls-14, .cls-15, .cls-16 {
        stroke-width: 0px;
      }

      .cls-2 {
        fill: url(#Namnlös_övertoning_20-3);
      }

      .cls-3 {
        fill: url(#Namnlös_övertoning_20-4);
      }

      .cls-4 {
        fill: url(#Namnlös_övertoning_8);
      }

      .cls-5 {
        fill: url(#Namnlös_övertoning_20-7);
      }

      .cls-6 {
        fill: url(#Namnlös_övertoning_20-2);
      }

      .cls-7 {
        fill: url(#Namnlös_övertoning_20);
      }

      .cls-8 {
        fill: url(#Namnlös_övertoning_16);
      }

      .cls-17 {
        fill: url(#Namnlös_övertoning_67);
        stroke: #7b7402;
        stroke-linecap: round;
        stroke-miterlimit: 10;
      }

      .cls-9 {
        fill: url(#Namnlös_övertoning_16-2);
      }

      .cls-10 {
        fill: url(#Namnlös_övertoning_16-5);
      }

      .cls-11 {
        fill: url(#Namnlös_övertoning_20-6);
      }

      .cls-12 {
        fill: url(#Namnlös_övertoning_12);
      }

      .cls-13 {
        fill: url(#Namnlös_övertoning_16-3);
      }

      .cls-14 {
        fill: url(#Namnlös_övertoning_16-4);
      }

      .cls-15 {
        fill: url(#Namnlös_övertoning_28);
      }

      .cls-16 {
        fill: url(#Namnlös_övertoning_20-5);
      }
    </style>
    <linearGradient id="Namnlös_övertoning_16" data-name="Namnlös övertoning 16" x1="276.97" y1="107.96" x2="370.27" y2="107.96" gradientTransform="translate(-118.73 -22.39) scale(1.31 1.36)" gradientUnits="userSpaceOnUse">
      <stop offset="0" stop-color="#fff"/>
      <stop offset=".02" stop-color="#f5f5ed"/>
      <stop offset=".1" stop-color="#d5d3af"/>
      <stop offset=".18" stop-color="#bab67a"/>
      <stop offset=".25" stop-color="#a39e4f"/>
      <stop offset=".32" stop-color="#918c2d"/>
      <stop offset=".39" stop-color="#857e15"/>
      <stop offset=".46" stop-color="#7d7607"/>
      <stop offset=".51" stop-color="#7b7402"/>
      <stop offset=".56" stop-color="#7d7607"/>
      <stop offset=".62" stop-color="#857f16"/>
      <stop offset=".69" stop-color="#938d30"/>
      <stop offset=".76" stop-color="#a5a154"/>
      <stop offset=".83" stop-color="#bdba81"/>
      <stop offset=".91" stop-color="#dad9b9"/>
      <stop offset="1" stop-color="#fcfcfa"/>
      <stop offset="1" stop-color="#fff"/>
    </linearGradient>
    <linearGradient id="Namnlös_övertoning_16-2" data-name="Namnlös övertoning 16" x1="360.38" y1="86.13" x2="417.53" y2="86.13" xlink:href="#Namnlös_övertoning_16"/>
    <linearGradient id="Namnlös_övertoning_16-3" data-name="Namnlös övertoning 16" x1="408.47" y1="83.87" x2="488.55" y2="83.87" xlink:href="#Namnlös_övertoning_16"/>
    <linearGradient id="Namnlös_övertoning_16-4" data-name="Namnlös övertoning 16" x1="482.33" y1="85.47" x2="520.05" y2="85.47" xlink:href="#Namnlös_övertoning_16"/>
    <linearGradient id="Namnlös_övertoning_16-5" data-name="Namnlös övertoning 16" x1="511.26" y1="85.92" x2="565.09" y2="85.92" xlink:href="#Namnlös_övertoning_16"/>
    <linearGradient id="Namnlös_övertoning_20" data-name="Namnlös övertoning 20" x1="389.13" y1="183.03" x2="463.76" y2="183.03" gradientTransform="translate(-118.73 -22.39) scale(1.31 1.36)" gradientUnits="userSpaceOnUse">
      <stop offset="0" stop-color="#fff"/>
      <stop offset=".02" stop-color="#f5f5ed"/>
      <stop offset=".1" stop-color="#d5d3af"/>
      <stop offset=".18" stop-color="#bab67a"/>
      <stop offset=".25" stop-color="#a39e4f"/>
      <stop offset=".32" stop-color="#918c2d"/>
      <stop offset=".39" stop-color="#857e15"/>
      <stop offset=".46" stop-color="#7d7607"/>
      <stop offset=".51" stop-color="#7b7402"/>
      <stop offset=".56" stop-color="#7d7607"/>
      <stop offset=".62" stop-color="#857f16"/>
      <stop offset=".69" stop-color="#938d30"/>
      <stop offset=".76" stop-color="#a5a154"/>
      <stop offset=".83" stop-color="#bdba81"/>
      <stop offset=".91" stop-color="#dad9b9"/>
      <stop offset="1" stop-color="#fcfcfa"/>
      <stop offset="1" stop-color="#fff"/>
    </linearGradient>
    <linearGradient id="Namnlös_övertoning_20-2" data-name="Namnlös övertoning 20" x1="456.61" y1="160.76" x2="492.6" y2="160.76" xlink:href="#Namnlös_övertoning_20"/>
    <linearGradient id="Namnlös_övertoning_20-3" data-name="Namnlös övertoning 20" x1="483.22" y1="170.29" x2="515.92" y2="170.29" xlink:href="#Namnlös_övertoning_20"/>
    <linearGradient id="Namnlös_övertoning_20-4" data-name="Namnlös övertoning 20" x1="497.49" y1="192.9" x2="565.54" y2="192.9" xlink:href="#Namnlös_övertoning_20"/>
    <linearGradient id="Namnlös_övertoning_20-5" data-name="Namnlös övertoning 20" x1="555.33" y1="156.86" x2="597.24" y2="156.86" xlink:href="#Namnlös_övertoning_20"/>
    <linearGradient id="Namnlös_övertoning_20-6" data-name="Namnlös övertoning 20" x1="583.44" y1="170.29" x2="616.13" y2="170.29" xlink:href="#Namnlös_övertoning_20"/>
    <linearGradient id="Namnlös_övertoning_20-7" data-name="Namnlös övertoning 20" x1="613.56" y1="170.47" x2="649.4" y2="170.47" xlink:href="#Namnlös_övertoning_20"/>
    <linearGradient id="Namnlös_övertoning_67" data-name="Namnlös övertoning 67" x1="356.45" y1="140.25" x2="733.86" y2="140.25" gradientUnits="userSpaceOnUse">
      <stop offset="0" stop-color="#fff"/>
      <stop offset=".02" stop-color="#f4f2f6"/>
      <stop offset=".09" stop-color="#c0b4cb"/>
      <stop offset=".17" stop-color="#937fa6"/>
      <stop offset=".25" stop-color="#6f5488"/>
      <stop offset=".32" stop-color="#523271"/>
      <stop offset=".39" stop-color="#3e1a60"/>
      <stop offset=".45" stop-color="#320c56"/>
      <stop offset=".51" stop-color="#2e0753"/>
      <stop offset=".56" stop-color="#320c56"/>
      <stop offset=".62" stop-color="#3f1b61"/>
      <stop offset=".69" stop-color="#553573"/>
      <stop offset=".76" stop-color="#73598b"/>
      <stop offset=".84" stop-color="#9986ab"/>
      <stop offset=".92" stop-color="#c8bed2"/>
      <stop offset="1" stop-color="#fff"/>
    </linearGradient>
    <linearGradient id="Namnlös_övertoning_8" data-name="Namnlös övertoning 8" x1="13.07" y1="89.82" x2="161.04" y2="140.78" gradientUnits="userSpaceOnUse">
      <stop offset="0" stop-color="#7b7402"/>
      <stop offset=".09" stop-color="#867f17"/>
      <stop offset=".28" stop-color="#a39e4e"/>
      <stop offset=".55" stop-color="#d0cea6"/>
      <stop offset=".8" stop-color="#fff"/>
    </linearGradient>
    <linearGradient id="Namnlös_övertoning_12" data-name="Namnlös övertoning 12" x1="109.56" y1="128.72" x2="255.39" y2="178.94" gradientUnits="userSpaceOnUse">
      <stop offset=".16" stop-color="#fff"/>
      <stop offset=".47" stop-color="#c9c698"/>
      <stop offset=".73" stop-color="#9f9a47"/>
      <stop offset=".91" stop-color="#857e15"/>
      <stop offset="1" stop-color="#7b7402"/>
    </linearGradient>
    <linearGradient id="Namnlös_övertoning_37" data-name="Namnlös övertoning 37" x1="19.48" y1="68.44" x2="233.64" y2="68.44" gradientUnits="userSpaceOnUse">
      <stop offset="0" stop-color="#7b7402"/>
      <stop offset=".06" stop-color="#80790c"/>
      <stop offset=".17" stop-color="#8f8929"/>
      <stop offset=".32" stop-color="#a8a358"/>
      <stop offset=".49" stop-color="#cac799"/>
      <stop offset=".69" stop-color="#f4f4eb"/>
      <stop offset=".73" stop-color="#fff"/>
      <stop offset=".76" stop-color="#fbfbf8"/>
      <stop offset=".79" stop-color="#f2f1e6"/>
      <stop offset=".83" stop-color="#e2e0c7"/>
      <stop offset=".88" stop-color="#ccc99d"/>
      <stop offset=".92" stop-color="#b0ac68"/>
      <stop offset=".97" stop-color="#8e8827"/>
      <stop offset="1" stop-color="#7b7402"/>
    </linearGradient>
    <linearGradient id="Namnlös_övertoning_28" data-name="Namnlös övertoning 28" x1="18.85" y1="201.54" x2="239.2" y2="201.54" gradientUnits="userSpaceOnUse">
      <stop offset="0" stop-color="#7b7402"/>
      <stop offset=".04" stop-color="#908a2b"/>
      <stop offset=".09" stop-color="#ada962"/>
      <stop offset=".15" stop-color="#c6c392"/>
      <stop offset=".2" stop-color="#dad8b9"/>
      <stop offset=".25" stop-color="#eae9d7"/>
      <stop offset=".31" stop-color="#f5f5ed"/>
      <stop offset=".36" stop-color="#fcfcfa"/>
      <stop offset=".4" stop-color="#fff"/>
      <stop offset=".5" stop-color="#ecebda"/>
      <stop offset=".72" stop-color="#bbb87e"/>
      <stop offset="1" stop-color="#7b7402"/>
    </linearGradient>
  </defs>
  <g id="Lager_2" data-name="Lager 2">
    <g>
      <path class="cls-8" d="m368,95.9c-1.3.8-11.32,10.85-12.38,11.92-3.3,2.54-8.25,7.9-13.44,10.04-3.07,1.34-4.13,3.88-6.25,6.16-3.07,1.21-3.3,5.76-6.25,7.1.35,2.14-.59,2.95-1.06,4.55-.12.13.12,1.07,0,1.21-1.06,1.21-1.53,3.62-2.83,5.22-.24,1.47-1.06,3.08-1.77,4.42-.83,2.01-1.89,3.75-2.83,5.89-.71,1.61-.94,4.55-2.83,5.76-.12,3.21-2.36,4.02-2.83,7.1-1.3.27-1.18,2.27-1.65,3.21-.24.4-.83.67-1.18,1.21-.47,1.07-1.06,1.88-1.65,3.22-.47.94-.94,3.88-2.83,3.88-.47,2.68-1.65,4.55-2.83,6.43-1.77,2.41-2.95,5.23-4.6,7.77-.71,1.07-1.41,2.68-2.24,3.75-.47.67-1.18.53-1.65,1.34-.35.67-.12,1.34-.59,1.87-1.89,2.81-3.3,6.16-5.66,8.44-4.01,8.57-10.97,14.06-14.74,23.17-2.24,1.34-3.54,3.48-5.07,5.76-1.77,1.47-3.54,3.22-4.48,5.76-3.18,1.34-5.31,3.88-7.43,6.43-3.3-.54-4.01,1.74-7.31,1.34-.24-.94-1.41-.53-2.24-.67,0-1.34-1.89-1.61-2.36-2.54-.47-1.34-.47-3.88-1.65-5.22v-9.64c.83-2.01.47-3.62,1.18-6.43.35-1.61.71-2.95,1.06-4.42.12-.4.83-1.74,1.18-2.68.35-1.21.71-2.81,1.06-3.75.24-.4,1.06-.53,1.18-.67.35-.8.59-1.61,1.18-2.55.47-1.07,1.65-5.22,2.83-5.22.47-.94,1.06-1.87,1.65-3.22.24-.4.24-1.34.59-1.87,1.18-2.01,3.07-3.75,4.48-5.76.47-.67.83-1.48,1.18-2.01.83-1.07,1.53-2.81,2.83-4.42,2.83-4.02,6.72-7.1,9.08-11.65,2.59-2.41,4.95-5.09,7.31-7.64,6.6-7.37,13.91-15,21.46-21.96.59-1.47,2.83-1.07,2.83-3.21,1.3-.8,2.24-1.74,3.42-2.55,1.06-2.81,4.01-3.62,5.07-6.43,2.95-.94,4.6-3.35,6.25-5.76,3.18-.54,3.3-4.42,6.25-5.09,1.77-6.29,4.6-11.12,6.25-17.41,2.71-5.09,3.18-12.72,5.66-17.95,2-12.59,6.37-27.19,5.66-41.79-.35-6.29-2.48-11.92-2.83-18.08-.24-2.28-1.89-2.95-2.24-5.09.71-1.74-2.24-2.95-2.36-4.55,0-2.28-2.95-3.48-4.48-5.09-.59-2.54-3.54-2.41-4.48-4.55-3.3-.54-5.42-1.47-9.67-1.88-5.9-.67-14.86,1.21-20.4,3.88-.47.13-1.53.13-2.24.53-.71.4-1.18,1.61-1.65,2.01-.83.4-1.53.13-2.36.67-1.77.94-3.42,1.61-5.07,3.21-.59.54-.94,1.88-2.83,1.88-2.24,2.14-4.83,3.88-7.31,5.76-2.36,2.01-4.48,4.42-7.43,5.76-2.71,3.35-5.07,7.1-7.9,10.31-2.36,3.62-4.24,7.63-6.72,10.98-.94,4.55-2.36,8.44-3.42,12.86-.83,11.25,1.65,18.62,4.48,25.72,1.06,1.61,1.77,3.62,3.42,4.42-.35,2.95,3.07,1.74,2.83,4.55,3.3.94,4.48,4.29,7.9,5.09,2.48,2.01,5.9,2.81,7.9,5.22,1.65-.4,2.95.27,4.6.67,1.18.13,2.71.27,3.89.54.35.13.94,1.21,1.18,1.34.71.27,1.53-.27,2.24,0,1.06.27,2.36,1.07,3.42,1.34,3.07.53,6.96.27,10.73.53,1.65.27,3.3.54,5.07.67,3.54.27,5.31.54,9.08,0,.94-1.74,2.24-3.08,4.01-3.88,2.36.94,3.77,2.95,3.89,6.43-.24,2.41-1.77,3.08-3.89,3.21.12,1.47-2,.4-2.83.67-.35.94-1.18,1.21-2.24,1.34-10.02.94-16.39-2.01-25-2.54-4.83-1.47-9.32-3.75-14.15-5.22-.83-.27-1.89-.27-2.83-.67-.12,0,0-.53-.47-.53-1.41-.13-2.36-1.74-4.6-1.34-2.24-2.54-5.42-4.15-8.49-5.76-1.18-2.54-3.54-3.75-5.07-5.76-1.53-2.14-2.48-4.96-4.48-6.43-1.41-4.15-2.48-8.44-4.6-11.65-.24-5.63-1.3-14.33-.59-20.49.71-5.49,2.71-9.64,4.6-14.2.24-.94.71-1.74,1.06-2.54.35-.67.71-1.88,1.18-2.54.35-.54,1.89-.4,1.18-2.01,1.3-.4,1.65-1.88,2.24-3.22,1.65-1.88,3.54-3.75,4.48-6.43,3.89-2.28,6.13-6.29,9.67-8.97,2.12-1.07,3.54-2.81,5.66-3.88,1.18-1.88,3.77-2.14,4.48-4.42,2.36-.4,3.3-2.28,5.66-2.68,4.01-4.29,10.26-5.89,15.33-8.97,5.19-.8,10.26-1.47,15.21-2.54,6.72.67,12.03,2.95,16.98,5.76,2.12,2.81,4.36,5.49,6.84,7.77.12,1.47.83,2.14,1.65,3.21.59.67,1.06,3.35,1.77,5.09.24.67.83,1.21,1.06,2.01.71,1.74.94,4.42,2.36,6.43,0,4.29.71,8.04,1.65,11.52.71,17.28-1.41,31.47-5.07,43.66-1.18,6.56-3.18,12.32-4.6,18.75-.71,1.61-2,2.68-1.65,5.76,1.65,1.34,3.65-.4,4.72-1.61.71-1.07,1.3-.94,2-2.41.35-.8.94,0,1.41-.94.59-.94,3.54-2.28,4.36-3.35.59-.8,1.89-1.21,2.48-1.88,1.41-1.88,3.3-2.01,4.48-3.48l8.02-5.22c1.65,1.21,1.41,3.08,1.77,4.82Zm-53.54,47.41c-4.95,6.03-10.85,10.85-16.51,16.07-2,2.54-5.07,5.22-6.72,7.1-.35.4-.71.27-1.18.67-.83.8-1.65,2.01-2.24,3.21-3.89,3.21-6.96,7.5-9.67,12.19-2.95.94-3.77,4.28-6.13,5.76-1.53,2.81-3.18,5.36-5.66,7.1-.35,2.27-2.24,4.15-2.83,5.22-.47.54-.12,1.74-.59,2.55-.71.94-2.12,1.61-2.83,2.54-.71.8-2.12,3.62-2.24,4.55-.24.54-.83.8-1.18,1.21-1.06,1.21-1.65,3.62-2.24,5.23-1.18,2.54-2.12,5.49-3.42,8.3,0,2.95-.71,5.89-.59,8.97.24,3.08.94,5.49,1.77,7.77,1.77,0,2.48-.27,3.3-.67.24-.13.35-1.21.59-1.34,1.18-.67,2.36-.67,2.83-1.21,2.24-2.41,4.13-4.69,6.25-7.1,1.77-2.14,3.3-4.29,5.66-5.76,1.65-5.22,5.54-7.9,7.31-12.86,2.36-.94,3.07-3.48,4.6-5.23,1.53-1.87,3.07-3.75,4.48-5.76,2.71-4.02,4.95-8.44,7.9-12.19.71-2.68,2.48-4.15,3.42-6.43,2-1.34,2.24-4.69,4.6-5.76,1.18-3.75,2.48-7.5,5.07-9.64.83-4.02,3.07-7.63,4.48-10.31.83-1.47,1.06-2.41,1.77-3.88,2.12-4.42,4.6-8.97,6.13-14.06,0-.94,2-2.41.59-2.68-1.77,2.68-4.48,4.42-6.72,6.43Z"/>
      <path class="cls-9" d="m430.13,97.64c-2,1.21-4.24,4.55-6.13,5.63-2.01,1.07-1.53,2.01-3.54,3.21-2,1.21-3.54,2.95-5.54,4.15-1.06.54-2.36.54-3.42,1.21-1.18.8-1.41,1.47-2.83,1.34-2,2.28-5.66,1.61-7.31,4.29-4.13.54-6.96.27-10.85,1.07,0-1.34-2.36-.27-3.3-.67-.12-1.61-2.24-.94-2.36-2.54-1.06-.13-.12-2.81-1.65-2.54-1.65-.27-2.12,1.61-3.42,1.88-1.53.54-3.77,1.88-5.66,3.21-.83.67-3.89,1.34-5.66,2.68-.83.54-5.42,2.01-7.31,1.88.24,0-1.65-1.34-2.83-.67-2.71-2.81-4.13-7.1-2.83-12.86,1.41-1.74,2.24-4.29,2.83-7.1,1.77-1.74,2.83-4.42,4.48-6.43,2.83-4.02,6.6-7.1,9.67-10.85,2-1.47,3.89-2.95,5.07-5.22,2.95-.13,3.77-2.54,5.66-3.75,2.24-1.21,5.07-1.61,6.25-3.88,5.19-.8,8.49-3.75,13.56-4.55,4.13.94,5.9,5.63,4.48,10.98-.94,1.21-1.65,2.68-3.3,3.21.24,1.34-1.18.94-1.18,1.88-.12.94-1.41.54-2.24.67-2.12-3.35,1.53-4.82,1.65-7.77-2.83-1.61-4.84,1.34-8.49.67-1.65,1.34-3.89,1.61-5.66,2.54-1.65,1.07-2.59,2.81-4.48,3.21-3.18,2.14-5.31,5.63-9.08,7.1-1.53,2.54-3.3,4.82-5.07,7.1-1.41.53-1.77,2.28-2.83,3.21-1.06.94-1.18,2.95-2.83,3.21-.94,4.15-3.07,6.7-3.42,11.52,3.42,2.28,6.49-1.07,9.67-1.21,0-1.21.94-.8,1.65-1.34.71-.4,1.06-.8,1.65-1.21,1.06-.67,3.54-.67,3.42-2.68,1.41.13,2.71.13,3.42-.67,1.3-.13,1.06-2.14,2.83-1.88.47-2.68,2-4.15,2.24-7.1,1.18-1.47,2.83-2.41,2.83-5.09,4.6-1.74,4.72-8.44,11.32-7.77,1.41.67,1.41,2.81,2.24,3.88.35,4.02-2.71,4.15-2.83,7.77-1.77,1.07-2.83,3.21-3.89,5.09-1.53.67-2.36,2.01-3.42,3.21-.83.94-3.07,1.34-2.24,3.88-.59,2.28,2.48.67,2.83,1.88.94-.54,2.36-.27,3.42-.54,1.89-.67,3.3-.13,5.07-1.21,1.77-.94,3.89-1.61,5.66-2.54,3.42-1.74,6.72-3.35,10.14-5.09,1.41-1.88,3.07-2.81,4.72-3.88,2.36-1.47,4.36-3.35,7.07-5.09,0,0,1.41,4.69,1.77,4.55Z"/>
      <path class="cls-13" d="m510.08,109.83c-5.78,1.61-6.37,4.55-12.03,6.29-4.95,1.21-11.67,5.09-16.98,1.88-3.07-3.21-1.06-9.51-.59-14.06,1.18-.27.59-2.41,1.77-2.68.12-1.07-.59-3.21,1.06-2.54-.35-2.95.94-4.15,1.77-5.76.83-1.47,1.18-3.75,2.24-5.09.83-1.74,2.01-2.95,2.24-5.22-3.3.13-4.48,3.21-6.84,5.22-4.72,4.02-8.02,9.64-12.38,14.73-1.41,1.61-2.83,3.21-4.6,4.55-2,4.15-4.72,7.37-7.31,10.85-3.19-.8-3.42,1.74-6.25,1.34-.35-1.88-2-3.21,0-4.55.24-1.88.35-3.88,1.77-4.42,1.3-3.08,3.07-5.49,3.89-9.11,2.12-2.01,2.71-6.03,4.6-8.3.47-3.75,1.65-6.7,2.24-10.31-2.48-1.47-5.07,1.88-6.84,3.21-2.24,1.21-4.01,3.08-5.66,5.22-2.48,1.21-4.01,3.48-5.66,5.76-2.83.54-3.07,4.15-6.25,4.42-2.36,3.35-4.72,6.7-7.9,9.11.12,1.21-1.18,1.88-1.65,2.54-.59.8-.59,2.41-1.77,2.54-.47,2.41-2.48,3.21-3.3,5.09-3.18-.53-5.78,1.88-7.43-.53.12-.67,0-1.34,0-2.01.12-1.21.35-1.61,1.18-2.54,2.71-3.21,3.66-9.78,6.25-14.2.94-3.35,2.83-5.76,3.89-8.97.71-1.47,1.41-2.81,1.53-4.15.71-3.75,1.65-5.49,3.07-11.79,1.06-2.95-2.24-.8-1.77-3.21-.47-3.08,2.48-2.41,2.36-5.09,2.01-.27,1.65-3.22,2.83-4.55.12-.67,1.06-.4,1.06-1.21h1.18c5.54,2.14,2.71,13.13-.59,16.74,0,1.47-.59,3.08-.59,4.55-.94,2.14-.71,2.14-1.3,4.55.24,1.88-1.53,3.75-1.53,6.7.35,1.61,1.53-1.21,2.83-.53.47-1.21,2.12-1.07,2.24-2.68,2.36-.67,3.89-2.41,5.07-4.42,2.12-1.07,3.89-2.54,5.66-3.88,1.65-1.61,4.13-2.28,5.19-4.55,5.07-.8,7.19-5.09,12.38-5.76,4.13,4.15,1.18,12.05.59,18.08.12,1.47,1.53-.8,2.24-.67.35-.94.94-1.61,1.77-2.01.71-1.88,2.48-2.68,3.89-3.75,2-3.21,5.78-4.15,7.43-7.77,4.36-1.47,6.6-5.36,10.73-7.1,4.36,2.68,2.48,10.71,0,14.2-1.53,6.83-5.66,10.71-7.43,17.28-1.06,2.95-2.48,5.76-2.24,10.31,4.36,2.28,7.31-2.28,11.32-2.54.59-.4.59-1.47,1.77-1.34.71-.8,1.89-.8,2.83-1.21,2.01-1.07,2.71-1.07,5.07-2.68,2.95-1.88,2.12-3.75,5.54-4.96,3.18-2.95,12.26-15.13,10.61-1.34-3.3,2.28-9.32,10.71-13.21,12.32Z"/>
      <path class="cls-14" d="m564.55,104.47c-1.77,3.21-17.45,13.8-26.3,14.47-7.43.54-14.27-1.47-18.75-4.96-2.71-.4-3.66-4.02-3.42-6.43-.47-2.68-1.18-6.03-.47-9.11,0,0,.47-.27.47-.67.35-1.34,2.24-7.77,3.66-8.44.59-1.88,1.18-3.88,2.83-4.55,1.3-3.62,4.48-5.22,6.13-8.3,3.18-1.61,6.25-3.21,8.49-5.89,4.13.4,5.78-2.01,9.67-1.88,1.65,1.47,1.77,3.21,1.65,5.76,0,1.07-.24.8-.47,1.34-.47.94-.24,3.22-1.18,4.42,0,5.22-4.36,10.98-4.72,15.67-1.65.94-2.83,3.75-3.89,5.22-1.06,1.47-2.71,2.01-3.42,3.75-2.71,1.07-4.13,3.48-6.84,4.55,1.77,1.74,4.6,2.54,6.25,3.08h1.18c6.25-.4,15.56-4.82,20.52-8.97,1.06-.94,3.42-2.28,4.48-2.81,1.06-.4,3.3-1.74,4.48-1.74,0,.27,0,4.82-.35,5.49Zm-26.77-26.79c-3.42,2.14-5.31,6.16-8.49,7.77-2.12,4.42-7.43,12.05-7.55,18.88,1.77.13,3.89-.94,4.6-1.34,1.41-.94,2.24-1.47,3.42-2.54,3.54-3.22,8.14-12.46,10.26-16.34,1.06-1.88,2.36-3.88,2.36-6.43-.12-.4-.12-1.21-.59-1.21-1.53,1.21-3.07.67-4.01,1.21Z"/>
      <path class="cls-10" d="m553.57,110.76c0-2.54,0-6.29-.24-6.29,4.72-1.47,10.26-8.04,14.27-10.45,4.95-3.62,11.68-10.45,16.98-13.53,2.83-1.88,5.31-4.15,8.02-6.03,2.36-1.61,4.72-4.02,7.9-4.42.59,1.07,1.41,2.14,2.24,3.21.59,2.28-.94,4.15-1.65,5.76-1.18,2.54-2.59,4.82-4.01,7.23-.12.27.24,1.07,0,1.21-1.06,1.07-6.37,12.19-6.96,14.73-1.53,1.61-3.42,2.95-3.89,5.76,1.3,1.88,3.3-.94,5.66,0,4.95-1.34,10.26-2.95,15.21-4.42,5.66-2.95,11.68-5.89,16.86-9.38,0,2.81.47,6.3-.35,5.49-1.3.54-3.07,2.81-4.24,3.35-.35.13-1.41,1.21-1.77,1.21-.71.27-1.06.27-1.65.67-1.89.94-2.71,2.41-4.25,3.35-.59.4-1.18.54-1.77.67-1.18.54-2.59,1.34-3.89,1.74-1.3.4-1.65.8-3.42,1.34-1.53.4-5.66,1.47-7.9,3.08-6.37.8-13.33,4.55-20.4,3.75-2.24-.13-4.36-1.74-6.84-1.88-1.53-1.74-3.18-3.62-5.66-4.55-.59-1.74-.59-3.75,0-5.49-1.77-.54-1.77.94-2.83,1.21-.35.94-2.12.13-2.24,1.34-1.41.94-3.18,1.88-3.18,1.34Zm26.42-6.03c1.77-1.74,7.07-9.38,7.43-12.59,1.53-.67,2-5.22,3.42-5.89-.12-1.47.12-2.41,1.18-2.54-.12-.8-.24-1.61-1.18-1.34-.12.94-.94,1.07-1.06,1.88-4.13,1.21-4.72,6.16-8.96,7.23-2.71,2.81-11.67,10.58-14.98,12.86,2.83,2.68,4.6,6.16,9.55,5.49,2.24-.94,3.66-2.68,4.6-5.09Z"/>
    </g>
    <g>
      <path class="cls-7" d="m474.65,220.29c1.43,1.98,2.25,5.42,1.02,5-2.66,1.25-4.91,3.02-6.85,5-1.23.73-2.55,1.46-3.47,2.5-.61,1.15-1.74,1.88-3.37,1.98-.82,1.25-1.84,2.29-2.97,3.02.1.62-.1.94-.51,1.04-1.53,4.59-3.68,8.54-5.93,12.5-.61,1.46-1.53,2.71-2.45,3.96-.2.42-.1,1.15-.41,1.56-.21.21-1.94.83-2.05,1.98,0,.62-.61.11-.92.52-.2.1.1.73,0,.94-.2.21-.82.31-1.02.52-.1.21.2.84,0,1.04-.92.73-2.76,2.6-3.88,3.96-.41.42-.2,1.04-.51,1.46-.41.62-1.74,1.25-2.45,2.08-2.76,2.92-6.23,6.15-9.3,9.48-.41,1.04-2.15.83-1.94,2.5-1.64.21-2.45,1.15-3.48,1.98-.92.73-1.94,1.35-2.96,1.98-1.94,1.35-3.58,3.02-5.82,4.06-3.99,2.6-8.89,4.17-13.8,5.94-3.17.21-5.42-.42-7.87-.94-1.12-2.5-1.12-6.04-.41-9.06,2.35-2.4,2.96-6.56,5.83-8.44,1.33-3.44,4.09-5.31,5.93-8.02,1.02-.62,1.94-1.46,2.97-1.98.61-.31.92-.73.92-1.56.82,0,1.33-.31,1.53-.94,2.35-.83,2.96-3.33,5.31-4.06.61-1.04,2.35-.94,2.45-2.5,1.12-.42,1.53-1.46,2.97-1.46,1.02-2.19,3.47-2.81,5.42-4.06,1.53-2.81,5.52-3.33,7.36-5.94,3.37-.94,4.7-3.96,8.38-4.48,1.33-.21.82-1.98,1.94-2.5.21-.11.72.1.92,0,.61-.52.82-1.15,1.53-1.56.61-.31,1.33-.11,1.94-.52,2.25-1.25,4.4-2.6,5.93-4.48.71-2.6-2.97-3.02-.51-4.48-1.23-2.61-3.07-4.48-5.93-5.52-2.35.42-4.29,1.35-5.42,3.02-2.04-1.56-3.78,1.67-5.82,0-.82-1.56-.2-2.19,0-3.96.82-.73,1.23-2.29,2.15-2.92,1.02-1.88,2.45-2.92,4.19-4.17,2.04-.31,2.55.83,4.39.52,1.53-.21,2.45-.83,2.97-1.98,3.78-1.15,5.21-4.69,8.89-6.04.1-1.25,1.64-1.77,2.45-2.5.71-.62,1.74-1.56,2.45-2.5,1.43-1.67,2.96-3.23,3.88-5.42,1.33-.21,1.74-1.77,2.45-2.5.82-.94,2.04-1.35,2.45-2.5,1.64-1.77,2.96-3.65,3.88-6.04,2.25-1.04,2.56-4.06,4.5-5.52.2-1.14,1.33-1.87,1.94-3.02.51-.94.1-2.71,1.43-2.91.1-3.02.82-5.21,1.02-8.02-.2-.94-1.12-1.25-1.02-2.5-2.66-1.35-5.62.21-8.79,0-7.05,2.5-15.13,3.86-21.16,7.5-2.04,1.04-4.39,1.77-5.82,3.44-1.12,0-1.43.94-2.96.52-1.74,2.08-4.29,3.33-6.34,5,0,2.19,1.74,2.61,0,4.06-2.05,1.67-8.79,1.35-10.83,0,.1-1.98-.41-3.02.51-4.06.61-.62,2.25-2.71,4.4-2.5.61-1.56,1.94-2.29,2.96-3.44,3.17-.52,5.11-2.4,7.87-3.54.92-.42,1.43-.32,2.45-1.04,3.17-1.56,6.44-3.02,9.3-5,4.4-.83,9.4-3.33,14.72-4.48.31,0,.61.1.92,0,.41-.1.41-.42.51-.52,1.12-.21,2.35-.21,3.47-.42,2.35-.52,4.91-1.56,6.85-1.56,2.25.1,4.29,1.04,6.34,1.98.21,1.35.72,2.29,1.53,3.02v8.02c-.1,2.08-1.33,2.91-1.53,5-.2,1.67-1.64,2.29-1.43,4.48-1.84,1.15-1.84,4.06-3.88,5-.92,2.08-2.35,3.65-3.99,5,0,1.56-1.74,1.25-1.43,3.02-1.43.11-.92,2.08-2.45,1.98-.61,2.29-2.55,3.02-3.47,5-2.55,3.44-5.82,6.04-8.28,9.48-3.48,2.4-6.34,5.31-9.81,7.5.82,2.08,2.25,3.75,3.88,5-.31,1.87.31,2.71,1.02,3.54,1.02.21-.1,2.71,1.43,2.5,3.48-.21,4.6-3.02,7.36-3.96,2.04-1.67,3.88-2.5,6.34-4.06Zm-31.89,25c-.82,2.6-4.29,2.6-5.31,5-2.56,1.04-4.8,2.5-6.44,4.48-1.53-.21-2.45,1.25-3.37,2.08-1.94,1.35-3.99,2.81-5.42,3.96-.41.31-1.12.63-1.53,1.04-.82.73-1.74,1.35-2.86,1.46-1.64,1.77-3.17,3.75-4.91,5.52-1.74,1.67-3.58,3.44-5.93,4.48-.61,1.88-1.84,3.13-3.48,3.96.41,3.33-2.45,3.54-2.86,6.04-1.02,1.56-1.12,3.86-1.02,6.46,5.11-.21,7.46-3.33,12.26-3.96,5.21-4.69,11.75-8.02,16.15-13.54.92,0,1.53-.94,2.05-1.46.61-.62.92-1.77,1.94-1.98.1-1.04,1.33-1.04,1.94-1.56.92-1.56,2.25-2.6,3.48-3.96,1.12-1.35,2.04-2.92,3.37-3.96-.1-1.56,1.12-1.56,1.02-3.02,2.04-.42,2.04-3.02,3.88-3.54.41-2.29,1.74-3.54,2.96-5-.21-1.56,1.53-1.15,1.02-3.02.82-.62.61-2.4,1.94-2.5-.1-.31,0-.94-.51-.94-2.96,1.15-4.7,3.54-8.38,3.96Z"/>
      <path class="cls-6" d="m506.74,222.38c-.21-.73-3.37.84-3.48,1.46-2.45,1.35-5.72,1.87-8.38,3.02-.51,1.15-1.43.21-2.45.52-.21.1-1.23.94-1.43,1.04-2.55.42-5.21-.1-7.36.42-.31-1.35-2.04-1.25-1.94-2.92-.41-1.87-.1-3.64.31-4.58.92-1.98,3.48-6.25,5.11-7.5,3.17-2.71,6.74-9.06,10.12-11.56.31-1.15,1.43-1.56,2.45-1.98.1-1.46,1.53-1.46,1.94-2.5.92-.62,1.64-1.35,2.45-2.08.92-.42.61-1.98,2.45-1.46,2.04-.21,1.33,2.29,2.45,3.02-.51,3.13-3.58,3.65-4.4,6.46-2.55.94-3.07,4.06-5.01,5.52-2.55,1.04-4.91,6.15-7.15,7.61-1.23,2.19-3.99,2.92-4.4,6.04,2.04,1.35,5.11-.42,6.44-1.56,3.68-.31,6.54-1.98,9.3-3.44,2.66-1.46,5.11-2.6,7.77-4.17,2.04-.83,2.04-2.29,3.78-3.33,2.15-.62,4.19-2.5,6.74-2.71,1.12,3.23-.71,6.36-5.31,8.75-.72,1.04-2.35,1.56-3.17,2.5-1.33,1.56-5.72,1.25-6.85,3.44Zm20.54-58.55c1.02,1.98,1.33,4.69,1.53,7.5-1.33,1.77-4.8.83-6.44,0-.1-4.27-.1-8.44,4.91-7.5Z"/>
      <path class="cls-2" d="m559.16,217.48c-1.53,2.5-15.13,10.73-22.79,11.25-6.44.42-12.37-1.15-16.25-3.86-2.35-.31-3.17-3.13-2.96-5-.41-2.08-1.02-4.69-.41-7.09,0,0,.41-.21.41-.52.31-1.04,1.94-6.04,3.17-6.56.51-1.46,1.02-3.02,2.45-3.54,1.12-2.81,3.88-4.06,5.31-6.46,2.76-1.25,5.42-2.5,7.36-4.58,3.58.31,5.01-1.56,8.38-1.46,1.43,1.15,1.53,2.5,1.43,4.48,0,.84-.2.63-.41,1.04-.41.73-.2,2.5-1.02,3.44,0,4.06-3.78,8.54-4.09,12.19-1.43.73-2.45,2.92-3.37,4.06-.92,1.15-2.35,1.56-2.96,2.92-2.35.83-3.58,2.71-5.93,3.54,1.53,1.35,3.98,1.98,5.42,2.4h1.02c5.42-.31,13.49-3.75,17.78-6.98.92-.73,2.96-1.77,3.88-2.19.92-.31,2.86-1.35,3.88-1.35,0,.21,0,3.75-.31,4.27Zm-23.2-20.83c-2.97,1.67-4.6,4.79-7.36,6.04-1.84,3.44-6.44,9.38-6.54,14.69,1.53.1,3.37-.73,3.98-1.04,1.23-.73,1.94-1.14,2.96-1.98,3.07-2.5,7.05-9.69,8.89-12.71.92-1.46,2.04-3.02,2.04-5-.1-.31-.1-.94-.51-.94-1.33.94-2.66.52-3.47.94Z"/>
      <path class="cls-3" d="m623.86,205.92c-3.17,1.04-5.42,2.71-8.48,3.96h-.41c-1.02,0-1.43.83-2.55.52-.21.94-.92.73-1.53,1.35-1.64.52-2.96.21-3.88,1.67-2.15,1.25-9.71,4.69-11.55,5.94-2.86,1.25-4.6,1.15-7.26,2.81-.61,1.35-1.02,2.4-2.45,3.44.31.31.51.62.51,1.04,0,1.04-.72,1.77-.51,3.02-1.02,0-2.86,4.69-3.88,5.94,0,1.46-1.33,4.17-1.94,5.52-.61.21-1.12.83-1.02,1.56-.92,3.64-3.17,6.77-4.4,10.42v.42c0,1.25-1.74,1.04-1.43,2.6-1.23,2.19-1.84,4.69-3.48,6.56.1.94-6.54,10.42-7.36,12.5-1.53,1.56-2.86,3.44-3.88,5.42-2.25,1.88-5.21,5.73-7.87,6.56-.61,1.87-7.77,3.13-9.5,3.13l-1.33-.11c-.21-.62-.72-1.04-1.43-1.04-1.74-2.29-1.84-5.42-2.96-8.02v-.42c0-1.77.72-3.23.51-5.1,1.02-1.88,1.64-3.86,1.94-5.94,3.48-5.62,5.82-12.08,10.83-16.56.1-1.56,1.43-2.08,2.45-2.92,1.43-2.92,4.09-4.79,6.34-7.08,0-.73,3.07-3.86,3.88-3.96,2.45-3.86,7.36-7.29,10.83-10.21l1.43-.42c1.53-1.15,3.07-2.19,4.5-3.54l.82-1.04,1.12-1.77c-1.94.11-4.39.73-5.93,1.98-2.76,0-5.52,1.04-8.28,1.04-1.23,0-1.84-.84-3.48-.52-1.43-1.04-2.45-2.6-3.88-3.54v-.42c0-1.25-.61-2.4-.61-3.65,0-3.44,1.94-6.25,3.07-9.38,2.15-2.08,4.19-4.48,5.82-7.08l12.77-7.92h1.43c4.5-2.08,5.52-3.02,10.83-3.02,2.55,0,5.52.21,7.87,1.46.82,1.77,2.66,2.71,3.37,4.48v3.02c0,2.4-3.17,4.06-4.91,5-.61,1.14-.92,2.4-1.43,3.54-1.02.42-1.43,2.5-1.43,3.64v.42l1.22.63c.72,0,1.33.73,1.53,0,3.27-1.35,6.13-2.92,9.61-3.86.61-.52.92-.52,1.43-1.15,1.53-.31,2.66-.73,3.99-1.35.72-1.25,9.71-4.06,11.55-4.06.1,0,.21.1.21.31.2,1.46-1.43,2.6-.82,4.17Zm-65.1,40.73c-1.94,2.29-3.88,4.69-6.34,6.46-1.84,3.96-7.05,10.52-9.81,15.52-1.12,1.98-.82,5-2.45,6.56.21.42.41.94.41,1.35v6.46c0,1.04,1.64.21,1.02,1.67.31.21.61.31,1.02.31,1.53,0,2.96-.73,4.4-1.35l.51-.94c3.17-2.08,5.42-4.69,8.38-7.08.41-1.46,7.05-11.36,7.77-11.46.82-.42-.1-2.5,1.53-1.98.61-2.71,8.28-17.71,9.81-20,1.23-2.19,1.94-4.06,2.45-5.73.1-2.71,2.45-4.69,2.45-7.5,0-.21.1-.42-.2-.42-1.74,0-20.34,16.15-20.95,18.13Zm31.89-51.98c-1.12,0-7.25,1.67-7.77,2.5-2.97-.31-8.89,4.79-11.86,5.94-.71,1.67-1.94,3.02-3.37,4.06-.82,1.77-2.04,3.23-3.47,4.48-.21,1.87-1.43,3.54-1.43,5.42,0,.73.31,1.46.51,2.08,1.12.42,2.04,1.04,3.27,1.04,3.27,0,6.34-2.4,9.4-2.08,1.12-1.04,2.45-1.56,3.99-1.46,1.84-2.29,4.29-3.75,6.85-5,2.15-4.59,3.99-9.69,7.87-13.02,1.23-.31,1.74-.31,2.97,0v-.42c0-2.5-5.11-3.54-6.95-3.54Z"/>
      <path class="cls-16" d="m650.43,214.46c0-.21-4.6,5.42-6.13,6.15-1.33.62-2.35,2.71-3.68,2.71-1.23.83-4.7,3.96-5.11,3.96-.61,0-2.45,1.98-3.68,1.98-.2,0-.51-.1-.61-.1-.92,0-4.7,1.77-6.13,2.08-2.76,0-3.17.52-4.4.52-2.86-.1-5.62-1.15-7.87-2.5-.72-1.87-1.53-3.54-1.53-6.04,0-5,2.86-10.84,5.93-15.94.61-1.04,1.12-2.71,1.94-4.06,3.99-6.67,8.38-13.54,12.77-20,.51-.94,1.23-1.77,1.53-3.02,1.23-.62,4.19-4.06,4.91-6.98,5.62-4.69,6.24-8.54,15.13-16.98,2.76-2.6,8.38-4.48,8.38-6.04,1.23,0,1.64.63,2.76.63.21,0,.41,0,.72-.1.41,1.46,1.02,2.71,1.02,4.58,0,2.71-1.53,8.86-3.07,11.98-.51.94-1.43,1.25-1.43,2.5-3.48,9.58-8.38,16.25-15.23,23.44-2.04,2.19-4.7,4.06-5.82,6.98-2.66,1.25-6.74,3.86-7.36,5.52-.92,0-.92.31-1.02,1.04-2.25.62-4.09,1.87-5.93,3.02-1.23,1.67-3.88,1.98-4.4,4.48-2.15.31-2.66,2.29-4.91,2.5-.41,1.67-1.02,3.75-1.02,5.83,0,3.33,2.25,3.65,4.29,3.65,8.07,0,15.43-5.52,19.62-8.44,4.6-3.23,8.38-6.04,11.04-8.96.31.11-.72,6.04-.72,5.63Zm6.54-55.21c-2.25,2.81-5.42,5.52-7.36,8.02-1.12,1.46-4.91,4.9-4.91,5.42,0,1.67-1.43,1.67-1.43,3.54-3.58,1.67-4.5,5.21-4.5,6.04-3.37,1.87-4.6,6.25-5.31,6.98-.41.31-1.33-.1-1.53.52-.61,4.37-2.45,4.27-2.45,5.31,0,.52-1.02.31-1.02.83,0,.42-1.53,3.33-2.25,3.33,0,0-1.22,3.13-1.22,2.71,0,1.04-2.86,5.31-3.68,6.04,3.68,0,11.75-9.17,14.82-10.83.2,0,.51.1.61.1,1.12,0,4.8-4.79,6.03-6.04,3.99-4.06,7.36-8.75,11.24-13.02.72-2.81,2.25-5.31,3.48-8.02.61.31.51-.31.51-.73,0-1.35,2.04-5.42,3.37-7.19-.1-.31-.1-.63-.1-.94,0-1.56.92-2.6.92-3.65,0-.94-.82-1.25-1.53-1.25-1.53,0-2.66,1.77-3.68,2.81Z"/>
      <path class="cls-11" d="m690.9,217.48c-1.53,2.5-15.13,10.73-22.79,11.25-6.44.42-12.37-1.15-16.25-3.86-2.35-.31-3.17-3.13-2.97-5-.41-2.08-1.02-4.69-.41-7.09,0,0,.41-.21.41-.52.31-1.04,1.94-6.04,3.17-6.56.51-1.46,1.02-3.02,2.45-3.54,1.12-2.81,3.88-4.06,5.31-6.46,2.76-1.25,5.42-2.5,7.36-4.58,3.58.31,5.01-1.56,8.38-1.46,1.43,1.15,1.53,2.5,1.43,4.48,0,.84-.2.63-.41,1.04-.41.73-.2,2.5-1.02,3.44,0,4.06-3.78,8.54-4.09,12.19-1.43.73-2.45,2.92-3.37,4.06-.92,1.15-2.35,1.56-2.97,2.92-2.35.83-3.58,2.71-5.93,3.54,1.53,1.35,3.99,1.98,5.42,2.4h1.02c5.42-.31,13.49-3.75,17.78-6.98.92-.73,2.96-1.77,3.88-2.19.92-.31,2.86-1.35,3.88-1.35,0,.21,0,3.75-.31,4.27Zm-23.2-20.83c-2.96,1.67-4.6,4.79-7.36,6.04-1.84,3.44-6.44,9.38-6.54,14.69,1.53.1,3.37-.73,3.99-1.04,1.23-.73,1.94-1.14,2.97-1.98,3.07-2.5,7.05-9.69,8.89-12.71.92-1.46,2.04-3.02,2.04-5-.1-.31-.1-.94-.51-.94-1.33.94-2.66.52-3.48.94Z"/>
      <path class="cls-5" d="m733.62,210.71c0-.11,1.33,3.96,1.33,3.96,0,0-3.58,3.86-3.68,3.65-5.31,3.44-10.32,7.92-17.17,9.48-3.27.31-6.95-.21-9.3-.52-1.02-.1-1.33,0-2.45-.52-.2-.11,0-.42-.51-.52-1.33,0-2.04-1.88-2.96-3.02-.2-2.29.72-3.54,1.02-5.42,2.76-3.33,4.29-6.98,7.36-10-.2-2.19-.61-5.21-1.53-6.56-2.96.73-11.45,13.13-14.31,13.96,0,0-3.68-2.71-3.58-2.61,1.53-1.35,4.29-5,5.62-6.04,1.33-1.56,6.34-8.54,8.18-9.48.1-1.15,3.37-3.23,4.19-3.96.51-.62.1-2.6,2.35-1.88,2.35.63,2.04,3.86,2.45,6.56.82,1.25,1.12,3.13,1.94,4.48-.41,2.4,1.53,3.44,1.53,5.52-.92,0-.71,1.46-1.02,1.98-.41.62-1.12,1.04-1.43,1.46-1.12,2.92-2.86,4.06-4.4,6.56-.51,1.46-2.45,1.46-1.94,3.96,1.94,1.15,5.01,1.35,8.28,1.04,5.72-.62,10.94-5.31,14.82-8.23,1.53-1.35,5.21-3.75,5.21-3.85Z"/>
    </g>
    <line class="cls-17" x1="356.45" y1="140.25" x2="733.86" y2="140.25"/>
  </g>
  <g id="Lager_1" data-name="Lager 1">
    <polygon class="cls-4" points="90.97 206.11 0 134.19 156 49.58 90.97 206.11"/>
    <polygon class="cls-12" points="170.13 60.12 261.11 132.04 105.11 216.65 170.13 60.12"/>
    <path class="cls-1" d="m138.35,25.97c-42.31-2.94-70.68,15.47-87.03,31.43-18.27,17.84-29.3,40.36-31.85,53.82l5.45-3c7.22-25.99,42.51-82.55,113.11-77.65,44.55,3.09,76.73,36,88.5,62.08l7.1,5.5c-4.85-14.89-16.32-31.42-30.76-44.29-12.99-11.58-34.73-25.83-64.53-27.89Z"/>
    <path class="cls-15" d="m234.32,155.8c-3.71,29.62-41.29,95.38-115.48,88.75-45.73-4.09-82.92-35.58-94.21-79.07l-5.78-4.38c9.96,48.23,49.96,83.61,99.58,88.05,42.8,3.83,71.6-15.51,88.23-32.4,20.06-20.38,30.71-45.51,32.37-61.41l.17-1.89h-.01s-4.86,2.36-4.86,2.36Z"/>
  </g>
</svg>