<?xml version="1.0" encoding="UTF-8" standalone="no"?>
<!-- Uploaded to: SVG Repo, www.svgrepo.com, Generator: SVG Repo Mixer Tools -->

<svg
   width="703.57635"
   height="533.33398"
   viewBox="0 0 21.107291 16.00002"
   fill="none"
   version="1.1"
   id="svg1"
   sodipodi:docname="discord-fill-svgrepo-com.svg"
   xmlns:inkscape="http://www.inkscape.org/namespaces/inkscape"
   xmlns:sodipodi="http://sodipodi.sourceforge.net/DTD/sodipodi-0.dtd"
   xmlns="http://www.w3.org/2000/svg"
   xmlns:svg="http://www.w3.org/2000/svg">
  <defs
     id="defs1" />
  <sodipodi:namedview
     id="namedview1"
     pagecolor="#ffffff"
     bordercolor="#111111"
     borderopacity="1"
     inkscape:showpageshadow="0"
     inkscape:pageopacity="0"
     inkscape:pagecheckerboard="1"
     inkscape:deskcolor="#d1d1d1" />
  <path
     id="path1"
     style="fill:#ffc400;fill-opacity:1"
     d="M 7.5892573,0 C 6.0532918,0.2559991 4.5919322,0.7146469 3.2255464,1.3439648 0.46289452,5.4186128 -0.28377963,9.39729 0.08955032,13.322578 1.9242046,14.655875 3.6949233,15.46662 5.4346479,16.00002 5.8613067,15.42402 6.2453265,14.805309 6.5759956,14.154609 5.9466574,13.920012 5.3492985,13.631986 4.7733003,13.290586 c 0.1493294,-0.1066 0.2986743,-0.223909 0.4373437,-0.341309 3.4773098,1.589397 7.243769,1.589397 10.67836,0 0.1493,0.1174 0.287985,0.234709 0.437285,0.341309 -0.575997,0.3414 -1.173281,0.629426 -1.802578,0.864023 0.3306,0.6507 0.714689,1.269411 1.141289,1.845411 1.738694,-0.5334 3.520001,-1.344145 5.345098,-2.677442 C 21.468695,8.778693 20.283669,4.8319846 17.894375,1.3439648 16.518378,0.7146469 15.057013,0.2559991 13.531719,0 c -0.192,0.3306691 -0.405407,0.7786745 -0.554707,1.1306836 -1.622397,-0.2346794 -3.2330935,-0.2346794 -4.8330477,0 C 7.9946249,0.7786745 7.7705967,0.3306691 7.5892573,0 Z M 7.055937,6.6772852 c 1.0559767,0 1.9199533,0.9494148 1.8986133,2.1120118 0,1.162697 -0.8426366,2.112012 -1.8986133,2.112012 -1.045347,0 -1.8986719,-0.949315 -1.8986719,-2.112012 0,-1.162597 0.8319952,-2.1120118 1.8986719,-2.1120118 z m 7.009043,0 c 1.055997,0 1.920031,0.9494148 1.898731,2.1120118 0,1.162697 -0.832034,2.112012 -1.898731,2.112012 -1.045294,0 -1.899668,-0.949315 -1.899668,-2.112012 0,-1.162597 0.832974,-2.1120118 1.899668,-2.1120118 z" />
</svg>
