<?xml version="1.0" encoding="UTF-8" standalone="no"?>
<!-- Uploaded to: SVG Repo, www.svgrepo.com, Generator: SVG Repo Mixer Tools -->

<svg
   fill="#000000"
   width="503.49979"
   height="582.74268"
   viewBox="-2 -2 15.104994 17.48228"
   preserveAspectRatio="xMinYMin"
   class="jam jam-github-square"
   version="1.1"
   id="svg2"
   sodipodi:docname="github-square-svgrepo-com.svg"
   xmlns:inkscape="http://www.inkscape.org/namespaces/inkscape"
   xmlns:sodipodi="http://sodipodi.sourceforge.net/DTD/sodipodi-0.dtd"
   xmlns="http://www.w3.org/2000/svg"
   xmlns:svg="http://www.w3.org/2000/svg">
  <defs
     id="defs2" />
  <sodipodi:namedview
     id="namedview2"
     pagecolor="#ffffff"
     bordercolor="#111111"
     borderopacity="1"
     inkscape:showpageshadow="0"
     inkscape:pageopacity="0"
     inkscape:pagecheckerboard="1"
     inkscape:deskcolor="#d1d1d1"
     inkscape:zoom="1.42125"
     inkscape:cx="400"
     inkscape:cy="400"
     inkscape:window-width="2560"
     inkscape:window-height="1351"
     inkscape:window-x="1304"
     inkscape:window-y="-9"
     inkscape:window-maximized="1"
     inkscape:current-layer="svg2" />
  <path
     d="m 2.4204287,15.482281 c 0.20978,0 0.3688654,-0.0035 0.4737536,-0.0209 A 0.55416713,0.554164 0 0 0 3.2088491,15.274306 C 3.3137447,15.16414 3.366179,15.005062 3.366179,14.795301 l -0.00675,-0.973719 c -0.00504,-0.620616 -0.00676,-1.113589 -0.00676,-1.475449 l -0.3286922,0.05756 a 4.2130695,4.2130498 0 0 1 -0.7958255,0.04901 6.1150672,6.1150326 0 0 1 -0.9964571,-0.09962 2.2306534,2.230643 0 0 1 -0.95798979,-0.430097 1.8180902,1.8180797 0 0 1 -0.6293346,-0.879298 l -0.1433978,-0.330342 a 3.5767398,3.5767205 0 0 0 -0.451022,-0.7290185 1.7289312,1.7289226 0 0 0 -0.62409241,-0.545392 l -0.099667,-0.0699 a 1.0523934,1.0523873 0 0 1 -0.1852925,-0.174887 0.79541357,0.79540935 0 0 1 -0.1293672,-0.199289 c -0.027991,-0.06629 -0.00517,-0.122371 0.069928,-0.164337 a 0.93177003,0.93176523 0 0 1 0.4160618,-0.06455 l 0.2867023,0.04388 c 0.1922903,0.03673 0.42829641,0.15193 0.70974991,0.34268 0.2797067,0.192226 0.5122052,0.438732 0.6940218,0.744679 0.220266,0.3915785 0.48424,0.6904575 0.7954121,0.8950445 a 1.6852215,1.685217 0 0 0 0.93701259,0.307648 c 0.3146704,0 0.587389,-0.0227 0.8163946,-0.06982 a 2.8495012,2.8494872 0 0 0 0.6450835,-0.21691 c 0.085641,-0.638106 0.3181658,-1.1310495 0.69926,-1.4736995 A 9.8071856,9.8071381 0 0 1 2.614452,9.0805705 5.8493481,5.8493175 0 0 1 1.2683637,8.5211545 3.852948,3.8529267 0 0 1 0.11457971,7.5631505 c -0.3041775,-0.382838 -0.5541683,-0.882809 -0.7517069,-1.5034157 a 7.1499813,7.1499408 0 0 1 -0.2919393,-2.14847 c 0,-1.1537792 0.3776025,-2.1379911 1.1310512,-2.94913438 -0.3531059,-0.8688343 -0.3198841,-1.8425491 0.099671,-2.92116262 0.2779566,-0.087401 0.6887743,-0.022723 1.23245169,0.1922977 0.5436822,0.2150222 0.9440129,0.398582 1.1957466,0.5524162 0.2534809,0.1520955 0.4545197,0.27971162 0.6083572,0.38459462 A 10.163814,10.163759 0 0 1 6.0880505,-1.2003326 c 0.944055,0 1.861808,0.1223731 2.749908,0.37235972 l 0.541884,-0.34438802 c 0.374111,-0.227262 0.8129205,-0.4387855 1.3181635,-0.6293334 0.506941,-0.1922954 0.89327,-0.2447417 1.160713,-0.1573329 0.430095,1.07860992 0.468573,2.05232462 0.113429,2.91941382 0.755231,0.81288918 1.132846,1.79534928 1.132846,2.95087798 0,0.8111422 -0.09834,1.5296456 -0.293699,2.1554672 -0.195784,0.6258427 -0.449279,1.1258147 -0.758653,1.5034197 a 4.0032922,4.0032699 0 0 1 -1.160834,0.952785 5.8423529,5.8423239 0 0 1 -1.3460945,0.559334 9.7984442,9.7983958 0 0 1 -1.468455,0.257 c 0.49643,0.428303 0.744721,1.1066015 0.744721,2.0331385 v 3.421099 c 0,0.162564 0.02418,0.2937 0.07182,0.395099 a 0.39508468,0.39508244 0 0 0 0.228975,0.208012 c 0.104577,0.03689 0.199317,0.06114 0.279752,0.06979 0.08223,0.0053 0.197543,0.0079 0.349576,0.0079 h -3.43687 -3.8930634 z"
     id="path1"
     style="fill:#b923ff;fill-opacity:1;stroke-width:1.74816" />
</svg>
