<?xml version="1.0" encoding="UTF-8"?>
<svg id="Lager_1" data-name="Lager 1" xmlns="http://www.w3.org/2000/svg" width="749.8" height="749.8" viewBox="0 0 749.8 749.8">
  <defs>
    <style>
      .cls-1 {
        fill: #ffc400;
      }
    </style>
  </defs>
  <path class="cls-1" d="m694.32,0H54.65C24.68,0,.35,24.1,0,53.98v641.8c.35,29.9,24.67,54.02,54.65,54.02h640.3c30,0,54.37-24.07,54.85-53.98V54.03c-.47-29.93-24.85-54.03-54.87-54.03h-.72.12ZM222.37,638.95h-111.35v-357.77h111.35v357.77Zm-55.65-406.73c-35.63,0-64.47-28.87-64.47-64.47s28.88-64.47,64.47-64.47,64.48,28.85,64.48,64.45h0v.1c0,35.57-28.85,64.43-64.42,64.43h-.07l.02-.03Zm472.05,406.73h-111.02v-173.97c0-41.5-.85-94.88-57.85-94.88s-66.73,45.15-66.73,91.83v177.05h-111.02v-357.77h106.65v48.78h1.45c20.7-34.87,58.15-57.87,100.97-57.87,1.53,0,3.03.03,4.52.08h-.23c112.5,0,133.3,74.05,133.3,170.42v196.37l-.05-.02Z"/>
</svg>